<svg xmlns="http://www.w3.org/2000/svg" width="32" height="32" viewBox="0 0 32 32" class="icon icon-codepen"><path d="M29.555 11.5l-14-9.332c-.336-.224-.774-.224-1.11 0l-14 9.333c-.277.186-.444.5-.444.833v9.333c0 .334.168.647.446.832l14 9.333c.168.113.36.17.555.17s.388-.057.556-.17l14-9.332c.278-.185.445-.498.445-.832v-9.333c0-.334-.166-.647-.444-.832zM15 20.466L9.803 17 15 13.535 20.197 17 15 20.465zm1-8.667v-6.93l11.197 7.465L22 15.798l-6-4zm-2 0l-6 4-5.197-3.465L14 4.868v6.93zM6.197 17L2 19.798v-5.596L6.197 17zM8 18.202l6 4v6.93L2.803 21.667 8 18.202zm8 4l6-4 5.197 3.465L16 29.132v-6.93zM23.803 17L28 14.202v5.596L23.803 17z"/></svg>