<svg xmlns="http://www.w3.org/2000/svg" class="icon icon-code" width="28" height="32" viewBox="0 0 28 32"><path d="M26.7 7.2C26 6.2 25 5.1 24 4s-2.2-2-3.1-2.7C19.2.1 18.4 0 18 0H2.5C1.1 0 0 1.1 0 2.5v27C0 30.9 1.1 32 2.5 32h23c1.4 0 2.5-1.1 2.5-2.5V10c0-.4-.1-1.2-1.3-2.8zm-4.2-1.7c1 1 1.7 1.8 2.3 2.5H20V3.2c.7.5 1.6 1.3 2.5 2.3zm3.5 24c0 .3-.2.5-.5.5h-23c-.3 0-.5-.2-.5-.5v-27c0-.3.2-.5.5-.5H18v7c0 .6.4 1 1 1h7v19.5z"/><path d="M16.8 24.2l1.4 1.4 4.5-4.5-4.5-4.5-1.4 1.4 3.2 3-3.2 3.2zm-5.6-6.4l-1.4-1.4L5.3 21l4.5 4.5 1.4-1.4L8 21l3.2-3.2zm3.7-2l1 .3-2.7 10.1-1-.3 2.7-10.1z"/></svg>