<svg xmlns="http://www.w3.org/2000/svg" width="32" height="32" viewBox="0 0 32 32" class="icon icon-github"><path d="M16 0C7.2 0 0 7.3 0 16.4 0 23.7 4.6 29.8 10.9 32c.8.2 1.1-.4 1.1-.8v-3.1c-4.5 1-5.4-1.9-5.4-1.9-.7-1.9-1.8-2.4-1.8-2.4-1.5-1 .1-1 .1-1 1.6.1 2.5 1.7 2.5 1.7 1.4 2.5 3.7 1.8 4.7 1.4.1-1.1.6-1.8 1-2.2-3.6-.4-7.3-1.8-7.3-8.1 0-1.8.6-3.3 1.7-4.4-.2-.4-.7-2.1.2-4.3 0 0 1.3-.4 4.4 1.7 1.3-.4 2.6-.5 4-.6 1.4 0 2.7.2 4 .6 3.1-2.1 4.4-1.7 4.4-1.7.9 2.3.3 3.9.2 4.3 1 1.1 1.6 2.6 1.6 4.4 0 6.3-3.7 7.7-7.3 8.1.6.5 1.1 1.5 1.1 3v4.5c0 .4.3.9 1.1.8C27.4 29.8 32 23.6 32 16.4 32 7.3 24.8 0 16 0z"/></svg>