<svg xmlns="http://www.w3.org/2000/svg" width="32" height="32" viewBox="0 0 32 32" class="icon icon-instagram"><path d="M16 2.88c4.275 0 4.78.02 6.462.095 1.563.07 2.406.33 2.97.55.743.288 1.28.638 1.836 1.194.563.562.906 1.093 1.2 1.837.22.563.48 1.412.55 2.97.075 1.687.094 2.193.094 6.462s-.02 4.78-.094 6.462c-.07 1.563-.33 2.406-.55 2.97-.288.743-.637 1.28-1.194 1.836-.563.563-1.094.906-1.837 1.2-.563.22-1.413.48-2.97.55-1.687.075-2.193.094-6.462.094s-4.78-.02-6.463-.094c-1.563-.07-2.406-.33-2.97-.55-.743-.288-1.28-.637-1.837-1.194-.563-.563-.906-1.094-1.2-1.837-.22-.563-.48-1.413-.55-2.97-.075-1.687-.094-2.193-.094-6.462s.02-4.78.095-6.463c.07-1.563.33-2.406.55-2.97.288-.743.638-1.28 1.194-1.837.562-.563 1.093-.906 1.837-1.2.563-.22 1.412-.48 2.97-.55 1.68-.075 2.187-.094 6.462-.094zM16 0c-4.344 0-4.887.02-6.594.094-1.7.075-2.87.35-3.88.744-1.057.412-1.95.956-2.838 1.85-.894.888-1.438 1.78-1.85 2.83C.444 6.54.168 7.7.094 9.4.02 11.113 0 11.656 0 16s.02 4.887.094 6.594c.075 1.7.35 2.87.744 3.88.413 1.057.956 1.95 1.85 2.838.887.887 1.78 1.438 2.83 1.844 1.02.394 2.182.67 3.882.744 1.706.075 2.25.094 6.594.094s4.888-.02 6.594-.094c1.7-.075 2.87-.35 3.88-.744 1.05-.406 1.945-.956 2.832-1.844s1.438-1.78 1.844-2.83c.394-1.02.67-2.182.744-3.882.075-1.706.094-2.25.094-6.594s-.02-4.887-.094-6.594c-.075-1.7-.35-2.87-.744-3.88-.394-1.064-.938-1.957-1.83-2.845C28.425 1.8 27.53 1.25 26.48.843c-1.02-.394-2.18-.67-3.88-.744C20.888.017 20.344 0 16 0z"/><path d="M16 7.78c-4.537 0-8.22 3.682-8.22 8.22s3.682 8.22 8.22 8.22 8.22-3.682 8.22-8.22c0-4.537-3.682-8.22-8.22-8.22zm0 13.55c-2.944 0-5.33-2.386-5.33-5.33s2.386-5.33 5.33-5.33 5.33 2.386 5.33 5.33-2.386 5.33-5.33 5.33zM26.462 7.456c0 1.06-.86 1.92-1.92 1.92s-1.918-.86-1.918-1.92.86-1.92 1.92-1.92 1.918.86 1.918 1.92z"/></svg>