<svg xmlns="http://www.w3.org/2000/svg" width="32" height="32" viewBox="0 0 32 32" class="icon icon-link"><path d="M13.757 19.868c-.416 0-.832-.16-1.15-.476-2.972-2.973-2.972-7.81 0-10.783l6-6C20.048 1.17 21.964.375 24 .375s3.95.793 5.392 2.233c2.973 2.972 2.973 7.81 0 10.782l-2.743 2.743c-.636.635-1.664.635-2.3 0s-.634-1.663 0-2.298l2.744-2.743c1.706-1.706 1.706-4.48 0-6.187-.826-.826-1.925-1.28-3.094-1.28s-2.267.454-3.094 1.28l-6 6c-1.706 1.706-1.706 4.48 0 6.187.635.635.635 1.663 0 2.298-.317.317-.733.476-1.15.476z"/><path d="M8 31.625c-2.037 0-3.952-.793-5.392-2.233-2.973-2.973-2.973-7.81 0-10.783l2.743-2.744c.636-.635 1.665-.635 2.3 0s.634 1.663 0 2.298l-2.744 2.743c-1.706 1.706-1.706 4.48 0 6.187.826.826 1.925 1.28 3.094 1.28s2.267-.454 3.094-1.28l6-6c1.706-1.706 1.706-4.48 0-6.187-.635-.635-.635-1.663 0-2.298s1.663-.636 2.298 0c2.973 2.972 2.973 7.81 0 10.782l-6 6c-1.44 1.44-3.355 2.233-5.392 2.233z"/></svg>