<svg xmlns="http://www.w3.org/2000/svg" width="40.7" height="32" viewBox="0 0 40.7 32" class="icon icon-mail"><path d="M37.8 28.4V10.9c-.5.5-1 1-1.6 1.5-3.2 2.5-6.5 5-9.7 7.7-1.7 1.4-3.8 3.2-6.2 3.2-2.4 0-4.5-1.7-6.2-3.2-3.2-2.6-6.4-5.2-9.7-7.7-.6-.5-1.1-1-1.6-1.5v17.5c0 .4.3.7.7.7H37c.5 0 .8-.3.8-.7zm0-23.9c0-.6.1-1.6-.7-1.6H3.6c-.4 0-.7.3-.7.7 0 2.6 1.3 4.8 3.3 6.5 3 2.4 6.1 4.8 9.1 7.2 1.2 1 3.4 3.1 5 3.1s3.8-2.1 5-3.1c3-2.4 6.1-4.8 9.1-7.2 1.6-1.2 3.4-3.7 3.4-5.6zm2.9-.9v24.7c0 2-1.6 3.6-3.6 3.6H3.6c-2 0-3.6-1.6-3.6-3.6V3.6C0 1.6 1.6 0 3.6 0h33.5c2 0 3.6 1.6 3.6 3.6z"/></svg>
