<svg xmlns="http://www.w3.org/2000/svg" width="32" height="32" viewBox="0 0 32 32" class="icon icon-map-signs"><path d="M31.16 5.304q.18.18.18.41t-.18.412l-2.517 2.518q-.5.5-1.214.5h-24q-.465 0-.805-.34t-.34-.803V3.43q0-.464.34-.804t.804-.34h10.285V1.145q0-.464.34-.804t.803-.34h2.286q.464 0 .804.34t.34.804v1.143h9.142q.714 0 1.214.5zm-17.446 16.41h4.57v9.143q0 .464-.338.804t-.804.34h-2.286q-.464 0-.804-.34t-.34-.803v-9.143zm14.857-8q.465 0 .805.34t.34.803v4.57q0 .465-.34.805t-.804.34h-24q-.713 0-1.213-.5L.84 17.55q-.18-.178-.18-.41t.18-.41l2.517-2.52q.5-.5 1.214-.5h9.144v-3.428h4.57v3.43h10.287z"/></svg>