<svg xmlns="http://www.w3.org/2000/svg" width="32" height="32" viewBox="0 0 32 32" class="icon icon-map"><path d="M9.143 0q.232 0 .402.17t.17.402v26.286q0 .357-.304.5l-8.57 4.57Q.715 32 .572 32q-.232 0-.402-.17T0 31.428V5.142q0-.357.304-.5l8.57-4.57Q9 0 9.145 0zM31.43 0q.23 0 .4.17t.17.402v26.286q0 .357-.303.5l-8.57 4.57Q23 32 22.856 32q-.23 0-.4-.17t-.17-.402V5.142q0-.357.303-.5l8.57-4.57Q31.287 0 31.43 0zm-20 0q.142 0 .25.054l9.142 4.57q.32.18.32.52v26.285q0 .23-.17.4t-.4.17q-.144 0-.25-.053l-9.144-4.57q-.32-.18-.32-.52V.573q0-.232.17-.402t.4-.17z"/></svg>