<svg xmlns="http://www.w3.org/2000/svg" width="27" height="32" viewBox="0 0 27 32" class="icon icon-music"><path d="M27.43 4v20q0 .893-.608 1.59t-1.536 1.08-1.848.57-1.723.188-1.723-.188-1.848-.57-1.536-1.08T16 24t.608-1.59 1.536-1.08 1.848-.57 1.723-.188q1.875 0 3.43.696v-9.59L11.43 15.912v12.662q0 .893-.607 1.59t-1.536 1.08-1.848.57T5.715 32t-1.723-.188-1.848-.57T.61 30.16 0 28.57t.607-1.59 1.535-1.08 1.848-.57 1.723-.188q1.875 0 3.43.696V8.572q0-.554.338-1.01t.875-.633l14.856-4.572q.214-.07.5-.07.714 0 1.214.5T27.43 4z"/></svg>